<svg width="73" height="75" viewBox="0 0 73 75" fill="none" xmlns="http://www.w3.org/2000/svg">
<g clip-path="url(#clip0_55_49)">
<path d="M72.5126 55.4353C72.495 55.3705 72.4677 55.3081 72.4314 55.2498L60.9397 37.4998L72.4044 19.7579C72.4942 19.613 72.532 19.4468 72.5126 19.282C72.5126 19.282 72.5126 19.2821 72.5126 19.2256C72.5012 19.1285 72.4671 19.0346 72.4128 18.9499C72.3584 18.8651 72.2849 18.7915 72.1969 18.7337L72.1337 18.6934C72.0531 18.6446 71.965 18.6065 71.8721 18.5804C71.8063 18.5726 71.7396 18.5726 71.6737 18.5804H48.7625L37.307 0.838529C37.2789 0.800053 37.2455 0.764835 37.2077 0.733686C37.1248 0.642215 37.0204 0.568093 36.902 0.516543C36.7835 0.464994 36.6539 0.43727 36.5222 0.435303C36.392 0.438433 36.2642 0.466709 36.1474 0.518217C36.0306 0.569725 35.9277 0.643239 35.8457 0.733686C35.8079 0.764835 35.7746 0.800053 35.7465 0.838529L24.2909 18.5804H1.34366C1.15876 18.5832 0.97927 18.6367 0.829507 18.7337H0.784417C0.694192 18.7901 0.620052 18.8647 0.567943 18.9514C0.510842 19.0351 0.473975 19.1285 0.459706 19.2256C0.464685 19.2442 0.464685 19.2635 0.459706 19.282C0.442989 19.4477 0.483951 19.6139 0.576972 19.7579L12.0326 37.4998L0.576972 55.2417C0.483951 55.3857 0.442989 55.552 0.459706 55.7176C0.463926 55.7335 0.463926 55.7501 0.459706 55.766C0.473786 55.8657 0.510623 55.9617 0.567943 56.0482C0.646648 56.1701 0.75965 56.2714 0.895738 56.3422C1.03183 56.4129 1.18625 56.4506 1.34366 56.4514H24.2639L35.7194 74.1934C35.7527 74.2474 35.7954 74.2963 35.8457 74.3385V74.3788C35.912 74.4292 35.9847 74.4725 36.0622 74.5079H36.1614C36.2439 74.54 36.333 74.5565 36.423 74.5563H36.4952C36.5852 74.5565 36.6742 74.54 36.7567 74.5079H36.8559C36.9347 74.4745 37.0076 74.431 37.0724 74.3788V74.3385L37.1987 74.1934L48.6543 56.4514H71.5655C71.7244 56.452 71.8807 56.415 72.0185 56.3442C72.1563 56.2734 72.2708 56.1713 72.3502 56.0482C72.4007 55.9597 72.4343 55.8643 72.4494 55.766C72.4494 55.766 72.4494 55.766 72.4494 55.7176C72.4934 55.6288 72.515 55.5324 72.5126 55.4353ZM69.1751 53.4353L55.3021 46.274L59.9295 39.1127L69.1751 53.4353ZM37.3972 70.774V47.3869H52.5059L37.3972 70.774ZM20.4844 47.3869H35.5932V70.774L20.4844 47.3869ZM35.5932 4.23368V19.145L18.9239 44.9514L14.1072 37.4998L35.5932 4.23368ZM58.8831 37.4998L54.0754 44.9595L37.3972 19.153V4.22561L58.8831 37.4998ZM22.2885 45.7659L36.4952 38.4353L50.7019 45.7659H22.2885ZM37.3972 22.3788L51.6039 44.3869L37.3972 37.0482V22.3788ZM35.5932 37.0482L21.3864 44.3869L35.5932 22.3788V37.0482ZM55.3021 28.7337L69.1842 21.5724L59.9295 35.8869L55.3021 28.7337ZM68.2731 20.1772L54.4001 27.3385L49.7728 20.1772H68.2731ZM18.5902 27.3385L4.71719 20.1772H23.2175L18.5902 27.3385ZM3.81517 21.5724L17.6882 28.7418L13.0608 35.8869L3.81517 21.5724ZM17.6882 46.2902L3.81517 53.4595L13.0608 39.1127L17.6882 46.2902ZM4.70816 54.8385L18.5902 47.6692L23.2175 54.8385H4.70816ZM54.4001 47.6692L68.2821 54.8385H49.7728L54.4001 47.6692Z" fill="white"/>
<path d="M72.5127 55.4354C71.6107 53.9193 70.5824 52.4515 69.6263 50.9515L66.6857 46.4999L60.7504 37.629L60.6783 37.5242L60.7504 37.4032L66.5504 28.0806L69.5271 23.4596L71.0154 21.1532L71.7641 19.9999L71.9445 19.7096L72.0347 19.5725C72.038 19.5484 72.038 19.524 72.0347 19.4999C72.0483 19.4441 72.0483 19.3864 72.0347 19.3306C72.0125 19.278 71.9944 19.2241 71.9805 19.1693C71.9339 19.133 71.8916 19.0924 71.8542 19.0483C71.8268 19.0142 71.7967 18.9818 71.7641 18.9516H71.6739H48.474L48.3388 18.7499L42.3764 9.51606L39.3998 4.89511L37.9114 2.58864L37.1628 1.43542C36.8832 0.983809 36.7479 0.798326 36.4953 0.806391C36.2428 0.814455 36.1074 0.983809 35.8278 1.43542L35.0882 2.58864L33.5908 4.89511L30.6142 9.51606L24.6519 18.7499L24.5166 18.9516H1.25363C1.19325 18.9691 1.13565 18.9935 1.08224 19.0242C1.0449 19.0682 1.00257 19.1087 0.955948 19.1451C0.942064 19.1999 0.923983 19.2538 0.901829 19.3064C0.88814 19.3622 0.88814 19.42 0.901829 19.4758C0.898433 19.4999 0.898433 19.5242 0.901829 19.5483L0.992009 19.6854L1.18145 19.9758L1.92111 21.129L3.4094 23.4354L6.39512 28.0564L12.3574 37.2903L12.4927 37.4919L12.3574 37.6935L6.39512 46.9274L3.4094 51.5483L1.92111 53.8548L1.17242 55.008L0.992009 55.2983L0.901829 55.4435C0.896969 55.4648 0.896969 55.4867 0.901829 55.508C0.88814 55.5638 0.88814 55.6216 0.901829 55.6773C0.923983 55.7299 0.942064 55.7838 0.955948 55.8386C0.986988 55.8866 1.02857 55.9285 1.07817 55.9618C1.12777 55.9951 1.18438 56.019 1.2446 56.0322H24.5166L24.6519 56.2338L30.6142 65.4677L33.5908 70.0806L35.0882 72.3951L35.8278 73.5483L36.0172 73.8387L36.1074 73.9757C36.133 73.9933 36.1545 74.0152 36.1706 74.0403C36.2149 74.0768 36.2633 74.1092 36.3149 74.137C36.3703 74.1639 36.4323 74.1779 36.4953 74.1779C36.5583 74.1779 36.6203 74.1639 36.6757 74.137C36.6757 74.0967 36.784 74.0806 36.8291 74.0403L36.8832 73.9757L36.9734 73.8306L37.1628 73.5483L37.9114 72.3951L39.3998 70.0806L42.3764 65.4677L48.4921 56.3145L48.5823 56.1935H48.7356L61.0121 56.3548C63.0596 56.3951 65.1072 56.4032 67.1548 56.4112H70.2306C70.7357 56.4112 71.2499 56.4112 71.7641 56.4112C71.89 56.3977 72.0114 56.3605 72.1202 56.3021C72.229 56.2438 72.3228 56.1655 72.3955 56.0725C72.447 55.9681 72.4892 55.8603 72.5218 55.7499C72.5343 55.6452 72.5313 55.5394 72.5127 55.4354ZM72.5127 55.4354C72.526 55.548 72.526 55.6615 72.5127 55.7741C72.4811 55.8858 72.4357 55.994 72.3774 56.0967C72.3066 56.1927 72.2136 56.274 72.1047 56.3352C71.9958 56.3964 71.8735 56.4361 71.746 56.4516C71.2318 56.4516 70.7177 56.4516 70.2126 56.4516H67.1367C65.0922 56.4516 63.0446 56.4677 60.994 56.4999L48.7176 56.6612L48.9521 56.5403L43.1432 65.8548L40.1665 70.4677L38.6692 72.7822L37.9295 73.9354L37.7401 74.2257L37.6409 74.3709L37.4875 74.5967C37.354 74.7165 37.1984 74.8147 37.0275 74.887C36.8591 74.961 36.674 74.9995 36.4863 74.9995C36.2986 74.9995 36.1135 74.961 35.9451 74.887C35.7775 74.8137 35.625 74.7156 35.494 74.5967L35.3227 74.4032L35.2235 74.25L35.043 73.9677L34.2944 72.8144L32.8061 70.4999L29.8204 65.8871L23.8581 56.6532L24.255 56.8548H1.33478C1.2418 56.8631 1.14813 56.8631 1.05516 56.8548C0.867184 56.8211 0.689476 56.7519 0.5339 56.6517C0.378323 56.5516 0.248477 56.4229 0.153142 56.2742C-0.0263943 55.981 -0.0716794 55.6369 0.0268469 55.3145C0.052821 55.2318 0.0923404 55.1529 0.144113 55.0806L0.234348 54.9273L0.423735 54.637L1.16339 53.4838L2.66077 51.1774L5.6374 46.5564L11.6087 37.3225V37.7258L5.6374 28.4919L2.66077 23.8709L1.17242 21.5644L0.423735 20.4112L0.234348 20.1209L0.144113 19.9758C0.0959333 19.9017 0.056624 19.8233 0.0268469 19.7419C-0.0661047 19.4172 -0.0244463 19.0735 0.144113 18.7742C0.350645 18.4862 0.673946 18.2809 1.04613 18.2016C1.14189 18.1897 1.23902 18.1897 1.33478 18.2016H24.264L23.8671 18.4032L29.8294 9.16929L32.8151 4.54834L34.3034 2.24187L35.0521 1.08865L35.2325 0.798318L35.3317 0.653163C35.3844 0.585589 35.4416 0.520961 35.5031 0.459622C35.6267 0.332988 35.7792 0.231479 35.9503 0.161928C36.1215 0.0923772 36.3073 0.0563965 36.4953 0.0563965C36.6829 0.0584243 36.868 0.0953168 37.0388 0.164734C37.2096 0.234151 37.3624 0.334575 37.4875 0.459622C37.549 0.520961 37.6062 0.585589 37.6589 0.653163L37.7581 0.798318L37.9476 1.08865L38.6872 2.24187L40.1755 4.54834L43.1612 9.16929L49.1235 18.4032L48.7356 18.2016H71.6558H71.9354C72.1154 18.2465 72.286 18.3173 72.4406 18.4112C72.5827 18.5182 72.7098 18.6401 72.8194 18.7742C72.9965 19.0712 73.0385 19.4178 72.9367 19.7419C72.9107 19.8246 72.8712 19.9034 72.8194 19.9758L72.7292 20.1209L72.5398 20.4112L71.8001 21.5644L70.3118 23.879L67.3262 28.4919L61.1925 37.637V37.4112L66.8301 46.4515L69.6804 50.9515C70.6185 52.4354 71.6198 53.9112 72.5127 55.4354Z" fill="white"/>
<path d="M69.1756 53.4357C68.1203 52.9276 67.0108 52.4115 65.8742 51.9115C65.2969 51.6534 64.7377 51.4518 64.1244 51.105L62.3203 50.218C59.8849 49.0405 57.4675 47.7986 55.1042 46.5809L54.7163 46.3793L54.9418 46.0325L59.5691 38.8712L59.957 38.2664L60.3449 38.8712C61.9234 41.2905 63.502 43.7986 65.0264 46.2906L66.1629 48.1535L66.7402 49.0889C66.9206 49.3954 67.0649 49.6857 67.2272 49.9841C67.8406 51.2099 68.5171 52.3389 69.1756 53.4357ZM69.1756 53.4357C68.2736 52.1454 67.4347 50.9115 66.5327 49.6938L65.8652 48.7986L65.2789 47.9357L64.1063 46.226C62.5458 43.9438 61.0485 41.6454 59.5421 39.3147H60.3178L55.6995 46.476L55.5281 45.9276C57.7832 47.0889 59.9841 48.2502 62.185 49.4599L63.8357 50.3631C64.3769 50.6534 64.9632 51.0405 65.5495 51.3793C66.7221 52.0809 67.9218 52.7502 69.1756 53.4357Z" fill="white"/>
<path d="M37.3975 70.7742C37.3975 68.9436 37.3073 67.0726 37.2171 65.1855C37.2171 64.2339 37.0999 63.3145 37.0908 62.3065L37.0367 59.3226C36.9646 55.3387 36.9465 51.3387 36.9465 47.3791V46.9758H53.291L52.9032 47.5807C50.3505 51.5323 47.7526 55.5081 45.1277 59.4516L43.1524 62.3952L42.1692 63.871L41.186 65.2742C39.878 67.1129 38.6153 68.9516 37.3975 70.7742ZM37.3975 70.7742C38.6964 68.6936 39.9502 66.6452 41.1679 64.5807L42.07 63.0565L42.972 61.6049L44.776 58.7016C47.1844 54.8468 49.6288 51.0242 52.1094 47.1774L52.4972 47.7823H37.3975L37.8485 47.3791C37.8485 51.2178 37.8485 55.0162 37.7583 58.8307L37.7042 61.6936C37.7042 62.6371 37.614 63.6694 37.5779 64.6694C37.4877 66.6855 37.4336 68.7097 37.3975 70.7742Z" fill="white"/>
<path d="M20.4851 47.3788C22.8664 47.3062 25.3289 47.2094 27.8455 47.0723C28.4769 47.0723 29.1083 46.9998 29.7578 46.9917H36.0719V72.3062L35.233 70.9917L27.5659 59.0804L25.6807 56.0965L24.7245 54.6046C24.4178 54.1046 24.1563 53.6207 23.8225 53.1288L20.4851 47.3788ZM20.4851 47.3788C21.8742 49.3949 23.2452 51.411 24.6343 53.3223C24.9681 53.8062 25.3379 54.2981 25.6536 54.7739L26.5556 56.2094L28.4498 59.0804L35.9366 70.5723L35.0977 70.774V47.3869L35.5487 47.7901H31.8775H30.0735C29.4601 47.7901 28.8378 47.7417 28.2063 47.7094C25.7108 47.5589 23.137 47.4487 20.4851 47.3788Z" fill="white"/>
<path d="M35.5934 4.22583C35.5934 6.60486 35.7106 9.02422 35.8369 11.4839L36.0263 15.2662C36.0263 16.5403 36.0263 17.8307 36.0263 19.1049V19.2097L35.9632 19.3065L19.294 45.1129L18.9061 45.7178L18.5092 45.1129L13.7015 37.6533L13.5662 37.4516L13.7015 37.25C17.3095 31.6049 20.9717 26.0242 24.661 20.4436L27.4301 16.2581L28.8102 14.1694L30.1903 12.1533C32.0755 9.54036 33.8796 6.85486 35.5934 4.22583ZM35.5934 4.22583C33.7894 7.12906 31.9853 10 30.2354 12.879L28.9275 15.0242L27.6286 17.0968L25.0218 21.2339C21.549 26.742 18.0402 32.2097 14.4953 37.7016V37.2984L19.312 44.7581H18.5453L35.2235 18.9516L35.1604 19.1533C35.1604 17.9436 35.1604 16.7339 35.1604 15.5404L35.3408 11.8629C35.4761 9.36293 35.5663 6.85486 35.5934 4.22583Z" fill="white"/>
<path d="M58.8835 37.4998L54.3734 45.1127L54.0938 45.5885L53.7691 45.1127C53.0384 44.0562 52.2808 43.0159 51.5862 41.9352L49.5116 38.7094L45.3443 32.2578L37.0096 19.3546L36.9465 19.2659V2.73364L37.7854 4.04009L48.6096 20.774L51.3156 24.9594L52.6686 27.0481C53.1196 27.7497 53.5165 28.4514 53.9404 29.153L58.8835 37.4998ZM58.8835 37.4998L53.1376 29.2256C52.6686 28.5401 52.1725 27.8546 51.7215 27.1691L50.3865 25.0965L47.6805 20.9675L37.0096 4.43524L37.8485 4.23363V19.1449L37.7854 18.9433L46.129 31.8465L50.2963 38.2981L52.389 41.5239C53.0836 42.5965 53.7149 43.7094 54.3734 44.7981H53.7691L58.8835 37.4998Z" fill="white"/>
<path d="M22.2888 45.7659C23.3803 45.1772 24.4717 44.5643 25.5902 43.9272L28.9637 41.9433C31.3991 40.6288 33.8346 39.3304 36.27 38.0804L36.4955 37.9675L36.721 38.0804L50.9278 45.4111L52.389 46.1691H50.7023C45.8945 46.1691 41.0507 46.1691 36.27 46.0804C33.8617 46.0804 31.4172 46.024 29.0539 45.9594C26.6906 45.8949 24.4988 45.8062 22.2888 45.7659ZM22.2888 45.7659C24.8235 45.7659 27.2859 45.6691 29.7484 45.5643C32.2109 45.4595 34.4389 45.4836 36.7752 45.4433C41.4115 45.3788 46.0389 45.3627 50.7023 45.3627L50.4768 46.1127L36.27 38.7821H36.721C34.4209 39.9756 32.1208 41.1288 29.8206 42.2579L26.0953 43.9514C24.8595 44.524 23.5697 45.1288 22.2888 45.7659Z" fill="white"/>
<path d="M37.3975 22.3628C38.5341 24.0483 39.7247 25.7741 41.0056 27.4838C42.2865 29.1935 43.4861 31.1531 44.7219 32.9918C47.2024 36.7015 49.6379 40.4435 52.0462 44.1693L52.8851 45.4676L51.3788 44.758L37.172 37.4273L36.9465 37.3064V37.0725C36.9465 34.5644 36.9465 32.0322 37.0367 29.4918L37.2712 25.879C37.3344 24.6612 37.3705 23.508 37.3975 22.3628ZM37.3975 22.3628C37.3975 23.6692 37.4697 24.9596 37.5328 26.2257L37.7673 29.9515C37.8215 32.2983 37.8576 34.6531 37.8485 37.0321L37.623 36.6854L51.8298 44.016L51.2163 44.5725C48.8801 40.9596 46.5891 37.3628 44.334 33.7419C43.1975 31.9112 42.07 30.129 40.9424 28.2499C39.8149 26.3709 38.6243 24.3547 37.3975 22.3628Z" fill="white"/>
<path d="M35.5934 37.0324L32.2469 39.0082C31.1103 39.6614 30.0009 40.355 28.8192 40.9921L21.6031 44.7179L20.1418 45.4679L20.9897 44.1695L35.2054 22.1775L36.0444 20.8711V29.8227C36.0444 31.0566 35.9 32.2421 35.8369 33.4679L35.5934 37.0324ZM35.5934 37.0324L35.3588 33.2824C35.2957 32.0405 35.1874 30.8066 35.1513 29.5969V22.3388L35.9902 22.5405L21.7835 44.5485L21.1701 43.992L28.1697 40.3872C29.3604 39.8066 30.6142 39.2743 31.85 38.7017L35.5934 37.0324Z" fill="white"/>
<path d="M55.3024 28.7176L58.4685 26.7982C59.0097 26.4756 59.5148 26.1208 60.1192 25.8224L61.9232 24.895L68.995 21.2014L70.4562 20.4434L69.6083 21.7579L60.3536 36.0885L59.9658 36.6934L59.5779 36.0885L58.3782 34.2256L57.7829 33.2982C57.5845 32.9837 57.4401 32.6611 57.2688 32.3466L55.3024 28.7176ZM55.3024 28.7176C56.2044 29.9514 57.1064 31.1369 58.0084 32.2579C58.2249 32.5402 58.4594 32.8224 58.6489 33.0644L59.2081 33.9192L60.3266 35.645H59.5509L68.7965 21.3708L69.4099 21.9192L62.5997 25.4031L60.94 26.2498C60.3897 26.5401 59.7313 26.7901 59.1359 27.0563L55.3024 28.7176Z" fill="white"/>
<path d="M68.2733 20.1615C67.254 20.726 66.1987 21.3309 65.1523 21.9599C64.6111 22.2744 64.124 22.6051 63.5197 22.9276L61.7157 23.8954C59.3614 25.1857 56.9621 26.4519 54.5898 27.6777L54.2019 27.8793L53.9764 27.5244L49.3491 20.3631L48.9612 19.7583H49.737C52.894 19.7583 56.051 19.7583 59.2622 19.8389L61.6345 19.8954H62.8252C63.2221 19.8954 63.5738 19.8954 63.9437 19.9599C65.45 20.0728 66.8842 20.1212 68.2733 20.1615ZM68.2733 20.1615C66.5866 20.1615 64.9539 20.2502 63.3213 20.3389L62.1216 20.4035H61.0031L58.7481 20.4599C55.7624 20.5244 52.7858 20.5405 49.7279 20.5405L50.1158 19.9357L54.7431 27.097L54.1298 26.9518C56.3848 25.7905 58.6398 24.6615 60.8768 23.5647L62.5816 22.7583C63.1318 22.4841 63.7993 22.218 64.3856 21.9518C65.7296 21.3712 66.9834 20.7906 68.2733 20.1615Z" fill="white"/>
<path d="M18.5904 27.3226L15.1447 25.8387C14.5584 25.5726 13.9721 25.3629 13.3407 25.0323L11.5367 24.129L4.43781 20.4919L2.9585 19.7419H23.9484L23.5515 20.3468L22.3518 22.2017L21.7475 23.129C21.54 23.4355 21.3055 23.7097 21.089 24L18.5904 27.3226ZM18.5904 27.3226C19.3211 26 20.0156 24.7258 20.6741 23.4677C20.8364 23.1613 20.9898 22.8387 21.1702 22.5484L21.7204 21.6855L22.8299 19.9597L23.2178 20.5645H4.71743L4.94294 19.8145L11.708 23.3468L13.4038 24.2258C13.9631 24.5081 14.5223 24.8952 15.0996 25.2339L18.5904 27.3226Z" fill="white"/>
<path d="M3.81543 21.5564C4.87079 22.0645 5.98029 22.5806 7.11683 23.0806C7.69412 23.3387 8.26239 23.5483 8.86674 23.8871L10.6708 24.7741C13.1062 25.9516 15.5236 27.1935 17.8869 28.4032L18.2838 28.6048L18.0583 28.9596L13.4309 36.1209L13.034 36.7258L12.6462 36.1209C11.0677 33.7016 9.48913 31.1935 7.96473 28.7016L6.81915 26.8064L6.24185 25.8709C6.06145 25.5645 5.91714 25.2741 5.75478 24.9757C5.14141 23.7903 4.4739 22.6532 3.81543 21.5564ZM3.81543 21.5564C4.71744 22.8467 5.55631 24.0887 6.45832 25.3064L7.12586 26.2016L7.71214 27.0564L8.88475 28.7742C10.4452 31.0564 11.9516 33.3467 13.458 35.6854H12.6732L17.3006 28.5242L17.4629 29.0725C15.2079 27.9112 13.007 26.7499 10.806 25.5403L9.16437 24.637C8.61414 24.3467 8.02785 23.9516 7.44154 23.6129C6.26893 22.9193 5.06021 22.2419 3.81543 21.5564Z" fill="white"/>
<path d="M17.6885 46.2741L14.5314 48.2016C13.9812 48.5242 13.4761 48.8709 12.8807 49.1773L11.0767 50.1048L4.00496 53.7903L2.53467 54.5564L3.38256 53.2419L12.6372 38.9112L13.0251 38.3064L13.422 38.9112L14.6126 40.7741L15.208 41.7016C15.4064 42.0161 15.5507 42.3387 15.7221 42.6532L17.6885 46.2741ZM17.6885 46.2741C16.7865 45.0483 15.8845 43.8548 14.9824 42.7419C14.775 42.4516 14.5315 42.1774 14.3421 41.9354L13.7828 41.0806L12.6643 39.3548H13.449L4.20337 53.629L3.59001 53.0725L10.4273 49.5967L12.1321 48.7338C12.6823 48.4354 13.3408 48.1935 13.9361 47.9274L17.6885 46.2741Z" fill="white"/>
<path d="M4.7085 54.8388C5.73679 54.2743 6.79218 53.6695 7.83851 53.0405C8.37972 52.726 8.85778 52.3872 9.46213 52.0727L11.2662 51.105C13.6294 49.8066 16.0288 48.5485 18.4011 47.3227L18.789 47.1211L19.0145 47.4679L23.6418 54.6372L24.0387 55.2421H23.2539C20.0969 55.2421 16.9398 55.2421 13.7286 55.1614L11.3474 55.105H10.1567C9.76883 55.105 9.41701 55.105 9.04718 55.0405C7.54984 54.9276 6.10662 54.8792 4.7085 54.8388ZM4.7085 54.8388C6.40428 54.8388 8.03697 54.7502 9.6606 54.6615L10.8602 54.5969H11.9878L14.2428 54.5405C17.2285 54.4759 20.2051 54.4598 23.2178 54.4598L22.83 55.0647L18.2026 47.8953L18.816 48.0485C16.561 49.2098 14.306 50.3389 12.069 51.4356L10.3641 52.2421C9.81391 52.5163 9.1374 52.7824 8.56011 53.0485C7.26121 53.6292 5.99838 54.2098 4.7085 54.8388Z" fill="white"/>
<path d="M54.4004 47.6697L57.8461 49.1616C58.4324 49.4197 59.0277 49.6375 59.6501 49.9681L61.4541 50.8713L68.562 54.5084L69.9601 55.2423H48.9883L49.3852 54.6374L50.5939 52.7826L51.1892 51.8552C51.3967 51.5487 51.6402 51.2745 51.8567 50.9842L54.4004 47.6697ZM54.4004 47.6697C53.6697 49.0003 52.9752 50.2746 52.3257 51.5326C52.1544 51.8391 52.001 52.1616 51.8296 52.4519L51.2704 53.3149L50.1609 55.0407L49.773 54.4358H68.2824L68.0569 55.1858L61.2827 51.6536L59.596 50.7746C59.0367 50.4923 58.4685 50.1052 57.9002 49.7665L54.4004 47.6697Z" fill="white"/>
</g>
<defs>
<clipPath id="clip0_55_49">
<rect width="73" height="75" fill="white"/>
</clipPath>
</defs>
</svg>
